<?xml version="1.0" standalone="no"?>
<!DOCTYPE svg PUBLIC "-//W3C//DTD SVG 20010904//EN"
 "http://www.w3.org/TR/2001/REC-SVG-20010904/DTD/svg10.dtd">
<svg version="1.0" xmlns="http://www.w3.org/2000/svg"
 width="1155.000000pt" height="1155.000000pt" viewBox="0 0 1155.000000 1155.000000"
 preserveAspectRatio="xMidYMid meet">
<metadata>
Created by potrace 1.11, written by Peter Selinger 2001-2013
</metadata>
<g transform="translate(0.000000,1155.000000) scale(0.100000,-0.100000)"
fill="#000000" stroke="none">
<path d="M4815 11536 c-18 -12 -85 -51 -474 -275 -68 -39 -127 -71 -132 -71
-5 0 -9 -4 -9 -10 0 -5 -4 -10 -9 -10 -4 0 -140 -77 -302 -170 l-294 -170 0
-5052 0 -5051 35 -22 c31 -20 257 -150 351 -203 35 -20 275 -158 674 -390
l190 -110 35 20 c158 92 1153 666 1189 685 25 14 51 29 56 33 8 6 301 176 500
290 17 9 101 58 188 108 88 51 161 92 165 92 3 0 13 6 21 14 9 7 41 27 71 43
30 17 123 70 205 118 83 48 175 101 205 118 30 17 84 48 119 69 34 21 65 38
67 38 2 0 36 19 76 43 95 57 161 95 473 275 346 199 329 189 436 253 108 65
837 487 919 532 30 17 84 48 120 70 36 22 81 48 101 58 19 10 40 24 47 31 7 9
10 223 9 732 l-2 719 -50 27 c-27 15 -106 60 -175 100 -68 40 -139 81 -157 91
-43 25 -67 38 -258 149 -88 51 -178 103 -200 115 -22 13 -98 57 -169 99 -70
42 -130 76 -132 76 -2 0 -27 14 -56 31 -29 18 -66 40 -83 49 -31 18 -119 68
-550 318 -137 79 -341 196 -452 260 -112 65 -203 119 -203 122 0 3 62 41 138
85 131 76 709 409 1272 734 146 85 281 162 300 173 19 11 202 117 407 235
l372 215 -1 722 0 721 -345 200 c-191 110 -367 212 -392 226 -25 15 -113 65
-195 113 -82 47 -151 86 -153 86 -2 0 -22 11 -44 26 -22 14 -56 34 -75 45 -19
10 -51 29 -71 40 -21 12 -186 107 -368 212 -181 104 -343 198 -360 207 -87 50
-573 331 -655 379 -52 30 -111 64 -130 74 -19 11 -75 43 -125 72 -49 29 -106
62 -125 73 -19 11 -91 52 -160 92 -69 40 -145 84 -170 98 -25 14 -62 36 -82
49 -21 12 -40 23 -43 23 -2 0 -29 16 -59 35 -30 19 -58 35 -61 35 -3 0 -22 11
-43 24 -20 13 -143 84 -272 159 -129 74 -251 144 -270 155 -19 12 -46 27 -60
35 -14 7 -42 23 -62 35 -21 12 -55 31 -75 43 -21 12 -42 25 -48 29 -5 4 -35
21 -65 37 -30 17 -117 67 -194 112 -76 44 -140 81 -142 81 -2 0 -32 17 -67 39
-80 49 -98 54 -122 37z m131 -1489 c49 -30 140 -82 202 -118 62 -35 128 -72
145 -83 18 -10 196 -113 397 -229 201 -116 417 -241 481 -278 64 -38 143 -83
175 -100 33 -18 66 -38 75 -45 8 -8 18 -14 22 -14 3 0 70 -38 149 -84 151 -88
898 -520 958 -553 19 -11 136 -79 260 -150 124 -72 241 -140 260 -150 218
-124 510 -297 510 -302 0 -3 -28 -22 -62 -41 -35 -19 -155 -88 -268 -153 -113
-66 -223 -130 -245 -142 -22 -13 -168 -97 -325 -188 -157 -90 -317 -181 -355
-202 -39 -21 -77 -44 -86 -51 -8 -8 -18 -14 -22 -14 -3 0 -61 -32 -129 -71
-67 -40 -138 -81 -158 -92 -19 -10 -93 -53 -165 -95 -71 -41 -143 -83 -160
-92 -34 -20 -238 -137 -400 -232 l-110 -63 0 -719 c0 -395 2 -721 5 -725 6 -8
88 -61 95 -61 2 0 33 -17 67 -38 35 -21 70 -41 78 -45 8 -4 31 -17 50 -28 28
-17 298 -173 465 -269 17 -10 86 -50 155 -90 69 -40 143 -83 165 -95 22 -13
139 -80 260 -150 121 -70 236 -137 255 -147 19 -11 76 -44 125 -73 50 -29 110
-63 135 -77 25 -14 126 -72 225 -130 99 -57 233 -135 298 -173 l118 -68 -88
-51 c-48 -29 -234 -136 -413 -240 -179 -103 -332 -191 -340 -196 -8 -5 -87
-50 -175 -101 -88 -50 -187 -108 -220 -129 -33 -20 -80 -48 -105 -62 -25 -14
-144 -83 -265 -153 -121 -70 -245 -141 -275 -158 -30 -17 -79 -45 -108 -64
-29 -18 -54 -33 -56 -33 -2 0 -70 -39 -152 -86 -179 -104 -141 -82 -509 -294
-165 -95 -343 -198 -395 -228 -52 -30 -126 -73 -165 -95 -38 -21 -90 -52 -115
-67 -25 -15 -65 -39 -90 -52 -25 -14 -96 -55 -157 -91 -103 -60 -113 -64 -114
-44 0 29 0 8552 0 8595 1 17 3 32 5 32 2 0 43 -24 92 -53z"/>
</g>
</svg>
